<svg height="24" version="1.1" width="24" xmlns="http://www.w3.org/2000/svg">
  <path d="M5 3.9l14-.6c2 0 2 .6 2 2v14c0 .8 0 2-2 2h-4.4c-.4-.4-.4-1-.4-1.2v-2.5c0-.8-.3-1.3-.6-1.4 2-.4 4.1-.9 4.1-4.7 0-1-.3-1.8-.9-2.4.1-.2.4-.8 0-2.4 0 0-.8-.2-2.6 1-1.5-.4-3-.4-4.5 0-1.4-1.2-2.4-1-2.4-1-.5 1.4.6 2.2-.1 2.4-.6.6-1 1.5-1 2.4 0 3.6 2.2 4.3 4.2 4.7.6 0-.5.4-.6 1-.5.2-1.8.6-2.6-.8 0 0-.5-.8-1.4-.9 0 0-.9 0 0 1 0 0 .5-.2 1 .9 0 0 .4 1.7 3 1.2v1.6s0 .6-.4 1L5 22.9c-1.1-1.1-2-2.7-2-3.3v-14c0-1 .9-1.9 2-.7z" fill="#E0E0E0"/>
</svg>
