<?xml version="1.0" encoding="utf-8"?>
<!-- Generator: Adobe Illustrator 16.0.0, SVG Export Plug-In . SVG Version: 6.00 Build 0)  -->
<!DOCTYPE svg PUBLIC "-//W3C//DTD SVG 1.1//EN" "http://www.w3.org/Graphics/SVG/1.1/DTD/svg11.dtd">
<svg version="1.1" id="Layer_1" xmlns="http://www.w3.org/2000/svg" xmlns:xlink="http://www.w3.org/1999/xlink" x="0px" y="0px"
	 width="2000px" height="532px" viewBox="0 0 2000 532" enable-background="new 0 0 2000 532" xml:space="preserve">
<polygon fill="#B3B3B3" points="520.781,176.23 520.781,380.23 545.374,380.23 545.374,213.592 670.193,380.23 696.637,380.23 
	696.637,176.23 672.044,176.23 672.044,340.261 547.49,176.23 "/>
<g>
	<defs>
		<rect id="SVGID_1_" width="2000" height="532"/>
	</defs>
	<clipPath id="SVGID_2_">
		<use xlink:href="#SVGID_1_"  overflow="visible"/>
	</clipPath>
	<path clip-path="url(#SVGID_2_)" fill="#B3B3B3" d="M899.039,205.375v-21.878c-85.123-22.275-170.701-3.238-163.484,103.421
		c6.472,92.052,87.112,108.592,163.484,85.124v-85.124h-26.651v69.61c-50.517,11.934-107.796-2.864-110.978-69.61
		C757.107,192.34,824.655,185.885,899.039,205.375"/>
	<path clip-path="url(#SVGID_2_)" fill="#B3B3B3" d="M1082.795,176.23v134.577c-2.886,32.158-23.232,49.472-57.707,49.474
		c-34.476-0.002-54.822-17.315-57.708-49.474V176.23h-26.537v134.577c5.385,57.229,35.07,70.388,73.478,71.201l-0.001,0.002
		c47.102,2.619,88.787-5.054,95.011-71.203V176.23H1082.795z"/>
	<polygon clip-path="url(#SVGID_2_)" fill="#B3B3B3" points="1183.751,358.548 1183.751,176.23 1157.722,176.23 1157.722,380.23 
		1290.812,380.23 1290.812,358.548 	"/>
	<polygon clip-path="url(#SVGID_2_)" fill="#B3B3B3" points="1402.635,149.561 1302.178,380.23 1329.69,380.23 1402.635,201.777 
		1440.531,294.487 1388.145,294.487 1380.703,315.297 1449.038,315.297 1475.58,380.23 1503.092,380.23 	"/>
	<path clip-path="url(#SVGID_2_)" fill="#B3B3B3" d="M1619.638,283.767c37.366-12.031,56.937-30.456,56.79-59.308
		c-0.318-34.429-21.201-48.906-57.706-48.229h-87.474v21.666V380.23h27.25V197.896h60.224c23.128,1.603,29.082,12.136,29.082,27.936
		c0,19.633-10.014,31.433-31.289,38.993c-8.132,2.733-16.865,4.97-26.417,6.577v16.717l64.804,92.112h35.266L1619.638,283.767z"/>
	<path clip-path="url(#SVGID_2_)" fill="#B3B3B3" d="M1719.126,358.059v22.172c41.947-1.205,70.47-15.84,69.325-60.148V176.23
		h-26.512v147.077C1763.193,344.803,1747.787,357.397,1719.126,358.059"/>
	<path clip-path="url(#SVGID_2_)" fill="#B3B3B3" d="M1976.694,182.971v24.192c-61.537-20.256-121.847-12.946-122.065,24.548
		c0.688,26.938,13.893,35.33,59.184,33.627c51.37-2.166,70.224,20.698,69.607,58.511c-1.355,58.963-59.586,67.561-147.622,48.953
		v-24.742c55.646,16.678,122.375,20.195,120.72-23.878c0.222-26.887-10.76-37.659-60.864-35.306
		c-45.659-0.65-69.351-18.93-66.918-58.175C1833.039,174.061,1888.968,163.142,1976.694,182.971"/>
	<polygon clip-path="url(#SVGID_2_)" fill="#B3B3B3" points="11.025,95.737 249.773,12.256 489.731,95.737 451.822,406.675 
		250.378,517.983 48.531,406.675 	"/>
	<polygon clip-path="url(#SVGID_2_)" fill="#A5120D" points="249.794,38.183 249.794,490.381 429.036,391.297 463.042,112.371 	"/>
	<polygon clip-path="url(#SVGID_2_)" fill="#DC1B16" points="249.794,38.183 249.794,490.381 70.552,391.297 36.546,112.371 	"/>
	<path clip-path="url(#SVGID_2_)" fill="#FFFFFF" d="M249.843,61.253v-0.002V61.253l-0.001-0.002L249.843,61.253L103.121,387.051
		h53.9l30.949-73.501h123.744l30.949,73.501h53.901L249.843,61.253z M206.577,269.361l43.265-102.751l43.266,102.751
		C224.68,269.518,243.737,269.525,206.577,269.361"/>
	<path clip-path="url(#SVGID_2_)" fill="#B3B2B2" d="M249.842,61.253L249.842,61.253v105.358l43.265,102.75
		c-21.686,0.051-34.579,0.084-43.265,0.104v44.086h61.872l30.949,73.502h53.9L249.842,61.253z"/>
	<polygon clip-path="url(#SVGID_2_)" fill="#020202" points="526.886,169.348 526.886,373.348 551.479,373.348 551.479,206.709 
		676.298,373.348 702.742,373.348 702.742,169.348 678.149,169.348 678.149,333.379 553.595,169.348 	"/>
	<path clip-path="url(#SVGID_2_)" fill="#020202" d="M905.143,198.493v-21.878c-85.123-22.275-170.701-3.238-163.484,103.421
		c6.472,92.052,87.112,108.592,163.484,85.124v-85.124h-26.651v69.611c-50.517,11.933-107.796-2.865-110.978-69.611
		C763.212,185.457,830.76,179.002,905.143,198.493"/>
	<path clip-path="url(#SVGID_2_)" fill="#020202" d="M1088.899,169.348v134.576c-2.886,32.159-23.232,49.472-57.707,49.474
		c-34.475-0.002-54.822-17.314-57.707-49.474V169.348h-26.537v134.576c5.385,57.229,35.07,70.388,73.478,71.202l-0.001,0.002
		c47.102,2.619,88.787-5.055,95.012-71.204V169.348H1088.899z"/>
	<polygon clip-path="url(#SVGID_2_)" fill="#020202" points="1189.855,351.665 1189.855,169.348 1163.826,169.348 1163.826,373.348 
		1296.916,373.348 1296.916,351.665 	"/>
	<polygon clip-path="url(#SVGID_2_)" fill="#020202" points="1408.74,142.678 1308.283,373.348 1335.795,373.348 1408.74,194.895 
		1446.636,287.604 1394.249,287.604 1386.808,308.415 1455.143,308.415 1481.685,373.348 1509.197,373.348 	"/>
	<path clip-path="url(#SVGID_2_)" fill="#020202" d="M1625.742,276.884c37.366-12.031,56.937-30.456,56.79-59.308
		c-0.317-34.429-21.2-48.906-57.706-48.229h-87.474v21.666v182.335h27.25V191.013h60.224c23.128,1.603,29.082,12.136,29.082,27.936
		c0,19.633-10.014,31.433-31.289,38.993c-8.132,2.733-16.864,4.97-26.417,6.577v16.716l64.805,92.113h35.265L1625.742,276.884z"/>
	<path clip-path="url(#SVGID_2_)" fill="#A5120D" d="M1725.23,351.177v22.171c41.947-1.205,70.471-15.839,69.325-60.148V169.348
		h-26.512v147.077C1769.298,337.921,1753.892,350.515,1725.23,351.177"/>
	<path clip-path="url(#SVGID_2_)" fill="#A5120D" d="M1982.799,176.089v24.192c-61.537-20.256-121.847-12.946-122.065,24.548
		c0.688,26.937,13.893,35.33,59.184,33.627c51.37-2.166,70.225,20.698,69.607,58.511c-1.355,58.963-59.585,67.561-147.622,48.954
		v-24.743c55.646,16.678,122.375,20.196,120.72-23.878c0.222-26.886-10.76-37.659-60.864-35.305
		c-45.658-0.651-69.351-18.93-66.918-58.175C1839.144,167.179,1895.072,156.26,1982.799,176.089"/>
</g>
</svg>
