<svg xmlns="http://www.w3.org/2000/svg" xmlns:xlink="http://www.w3.org/1999/xlink" width="2000" height="532"><path fill="#B3B3B3" d="M520.781 176.23v204h24.593V213.592L670.193 380.23h26.444v-204h-24.593v164.031L547.49 176.23z"/><defs><path id="a" d="M0 0h2000v532H0z"/></defs><clipPath id="b"><use xlink:href="#a" overflow="visible"/></clipPath><path clip-path="url(#b)" fill="#B3B3B3" d="M899.039 205.375v-21.878c-85.123-22.275-170.701-3.238-163.484 103.421 6.472 92.052 87.112 108.592 163.484 85.124v-85.124h-26.651v69.61c-50.517 11.934-107.796-2.864-110.978-69.61-4.303-94.578 63.245-101.033 137.629-81.543m183.756-29.145v134.577c-2.886 32.158-23.232 49.472-57.707 49.474-34.476-.002-54.822-17.315-57.708-49.474V176.23h-26.537v134.577c5.385 57.229 35.07 70.388 73.478 71.201l-.001.002c47.102 2.619 88.787-5.054 95.011-71.203V176.23h-26.536zm100.956 182.318V176.23h-26.029v204h133.09v-21.682zm218.884-208.987L1302.178 380.23h27.512l72.945-178.453 37.896 92.71h-52.386l-7.442 20.81h68.335l26.542 64.933h27.512zm217.003 134.206c37.366-12.031 56.937-30.456 56.79-59.308-.318-34.429-21.201-48.906-57.706-48.229h-87.474v204h27.25V197.896h60.224c23.128 1.603 29.082 12.136 29.082 27.936 0 19.633-10.014 31.433-31.289 38.993-8.132 2.733-16.865 4.97-26.417 6.577v16.717l64.804 92.112h35.266l-70.53-96.464zm99.488 74.292v22.172c41.947-1.205 70.47-15.84 69.325-60.148V176.23h-26.512v147.077c1.254 21.496-14.152 34.09-42.813 34.752m257.568-175.088v24.192c-61.537-20.256-121.847-12.946-122.065 24.548.688 26.938 13.893 35.33 59.184 33.627 51.37-2.166 70.224 20.698 69.607 58.511-1.355 58.963-59.586 67.561-147.622 48.953V348.06c55.646 16.678 122.375 20.195 120.72-23.878.222-26.887-10.76-37.659-60.864-35.306-45.659-.65-69.351-18.93-66.918-58.175 4.303-56.64 60.232-67.559 147.958-47.73M11.025 95.737l238.748-83.481 239.958 83.481-37.909 310.938-201.444 111.308L48.531 406.675z"/><path clip-path="url(#b)" fill="#A5120D" d="M249.794 38.183v452.198l179.242-99.084 34.006-278.926z"/><path clip-path="url(#b)" fill="#DC1B16" d="M249.794 38.183v452.198L70.552 391.297 36.546 112.371z"/><path clip-path="url(#b)" fill="#FFF" d="M249.843 61.253v-.002.002l-.001-.002.001.002-146.722 325.798h53.9l30.949-73.501h123.744l30.949 73.501h53.901L249.843 61.253zm-43.266 208.108l43.265-102.751 43.266 102.751c-68.428.157-49.371.164-86.531 0"/><path clip-path="url(#b)" fill="#B3B2B2" d="M249.842 61.253v105.358l43.265 102.75c-21.686.051-34.579.084-43.265.104v44.086h61.872l30.949 73.502h53.9l-146.721-325.8z"/><path clip-path="url(#b)" fill="#020202" d="M526.886 169.348v204h24.593V206.709l124.819 166.639h26.444v-204h-24.593v164.031L553.595 169.348zm378.257 29.145v-21.878c-85.123-22.275-170.701-3.238-163.484 103.421 6.472 92.052 87.112 108.592 163.484 85.124v-85.124h-26.651v69.611c-50.517 11.933-107.796-2.865-110.978-69.611-4.302-94.579 63.246-101.034 137.629-81.543m183.756-29.145v134.576c-2.886 32.159-23.232 49.472-57.707 49.474-34.475-.002-54.822-17.314-57.707-49.474V169.348h-26.537v134.576c5.385 57.229 35.07 70.388 73.478 71.202l-.001.002c47.102 2.619 88.787-5.055 95.012-71.204V169.348h-26.538zm100.956 182.317V169.348h-26.029v204h133.09v-21.683zm218.885-208.987l-100.457 230.67h27.512l72.945-178.453 37.896 92.709h-52.387l-7.441 20.811h68.335l26.542 64.933h27.512zm217.002 134.206c37.366-12.031 56.937-30.456 56.79-59.308-.317-34.429-21.2-48.906-57.706-48.229h-87.474v204.001h27.25V191.013h60.224c23.128 1.603 29.082 12.136 29.082 27.936 0 19.633-10.014 31.433-31.289 38.993-8.132 2.733-16.864 4.97-26.417 6.577v16.716l64.805 92.113h35.265l-70.53-96.464z"/><path clip-path="url(#b)" fill="#A5120D" d="M1725.23 351.177v22.171c41.947-1.205 70.471-15.839 69.325-60.148V169.348h-26.512v147.077c1.255 21.496-14.151 34.09-42.813 34.752m257.569-175.088v24.192c-61.537-20.256-121.847-12.946-122.065 24.548.688 26.937 13.893 35.33 59.184 33.627 51.37-2.166 70.225 20.698 69.607 58.511-1.355 58.963-59.585 67.561-147.622 48.954v-24.743c55.646 16.678 122.375 20.196 120.72-23.878.222-26.886-10.76-37.659-60.864-35.305-45.658-.651-69.351-18.93-66.918-58.175 4.303-56.641 60.231-67.56 147.958-47.731"/></svg>